<?xml version="1.0" encoding="UTF-8" standalone="no"?>
<!-- Created with Inkscape (http://www.inkscape.org/) -->

<svg
   xmlns:dc="http://purl.org/dc/elements/1.1/"
   xmlns:cc="http://creativecommons.org/ns#"
   xmlns:rdf="http://www.w3.org/1999/02/22-rdf-syntax-ns#"
   xmlns:svg="http://www.w3.org/2000/svg"
   xmlns="http://www.w3.org/2000/svg"
   version="1.1"
   width="430"
   height="480"
   id="svg2">
  <metadata
     id="metadata8">
    <rdf:RDF>
      <cc:Work
         rdf:about="">
        <dc:format>image/svg+xml</dc:format>
        <dc:type
           rdf:resource="http://purl.org/dc/dcmitype/StillImage" />
        <dc:title></dc:title>
      </cc:Work>
    </rdf:RDF>
  </metadata>
  <defs
     id="defs6" />
  <g
     transform="matrix(0.3,0,0,0.3,-10.176437,-4.0281816)"
     id="layer2"
     style="display:inline">
    <g
       transform="translate(-3.0204644e-7,-1.7674178e-5)"
       id="g3767">
      <rect
         width="100"
         height="10"
         rx="5"
         ry="5"
         x="-8.0653305"
         y="-146.29295"
         transform="matrix(-0.46174861,0.88701083,-0.88701083,-0.46174861,0,0)"
         id="rect2991"
         style="fill:#000000;fill-opacity:1;stroke:none" />
      <rect
         width="100"
         height="10"
         rx="5"
         ry="5"
         x="108.98223"
         y="-88.553276"
         transform="matrix(0.46174861,0.88701083,-0.88701083,0.46174861,0,0)"
         id="rect3765"
         style="fill:#000000;fill-opacity:1;stroke:none" />
    </g>
    <g
       transform="matrix(0,-1,1,0,1028.4814,545.18217)"
       id="g3771">
      <rect
         width="100"
         height="10"
         rx="5"
         ry="5"
         x="-8.0653305"
         y="-146.29295"
         transform="matrix(-0.46174861,0.88701083,-0.88701083,-0.46174861,0,0)"
         id="rect3773"
         style="fill:#000000;fill-opacity:1;stroke:none" />
      <rect
         width="100"
         height="10"
         rx="5"
         ry="5"
         x="108.98223"
         y="-88.553276"
         transform="matrix(0.46174861,0.88701083,-0.88701083,0.46174861,0,0)"
         id="rect3775"
         style="fill:#000000;fill-opacity:1;stroke:none" />
    </g>
    <g
       transform="matrix(-1,0,0,-1,1010.3054,1155.5186)"
       id="g3777">
      <rect
         width="100"
         height="10"
         rx="5"
         ry="5"
         x="-8.0653305"
         y="-146.29295"
         transform="matrix(-0.46174861,0.88701083,-0.88701083,-0.46174861,0,0)"
         id="rect3779"
         style="fill:#000000;fill-opacity:1;stroke:none" />
      <rect
         width="100"
         height="10"
         rx="5"
         ry="5"
         x="108.98223"
         y="-88.553276"
         transform="matrix(0.46174861,0.88701083,-0.88701083,0.46174861,0,0)"
         id="rect3781"
         style="fill:#000000;fill-opacity:1;stroke:none" />
    </g>
    <g
       transform="matrix(0,1,-1,0,1486.3581,926.69458)"
       id="g3783">
      <rect
         width="100"
         height="10"
         rx="5"
         ry="5"
         x="-8.0653305"
         y="-146.29295"
         transform="matrix(-0.46174861,0.88701083,-0.88701083,-0.46174861,0,0)"
         id="rect3785"
         style="fill:#000000;fill-opacity:1;stroke:none" />
      <rect
         width="100"
         height="10"
         rx="5"
         ry="5"
         x="108.98223"
         y="-88.553276"
         transform="matrix(0.46174861,0.88701083,-0.88701083,0.46174861,0,0)"
         id="rect3787"
         style="fill:#000000;fill-opacity:1;stroke:none" />
    </g>
    <g
       transform="translate(75,-12)"
       id="g3864">
      <rect
         width="10"
         height="90"
         rx="5"
         ry="4.5"
         x="1010"
         y="68"
         id="rect3860"
         style="fill:#000000;fill-opacity:1;stroke:none" />
      <rect
         width="10"
         height="90"
         rx="5"
         ry="4.5"
         x="-78"
         y="1010"
         transform="matrix(0,-1,1,0,0,0)"
         id="rect3862"
         style="fill:#000000;fill-opacity:1;stroke:none" />
    </g>
    <g
       transform="matrix(0,-1,1,0,1269,1473)"
       id="g3868">
      <rect
         width="10"
         height="90"
         rx="5"
         ry="4.5"
         x="1010"
         y="68"
         id="rect3870"
         style="fill:#000000;fill-opacity:1;stroke:none" />
      <rect
         width="10"
         height="90"
         rx="5"
         ry="4.5"
         x="-78"
         y="1010"
         transform="matrix(0,-1,1,0,0,0)"
         id="rect3872"
         style="fill:#000000;fill-opacity:1;stroke:none" />
    </g>
    <g
       transform="matrix(-1,0,0,-1,1181,1487)"
       id="g3874">
      <rect
         width="10"
         height="90"
         rx="5"
         ry="4.5"
         x="1010"
         y="68"
         id="rect3876"
         style="fill:#000000;fill-opacity:1;stroke:none" />
      <rect
         width="10"
         height="90"
         rx="5"
         ry="4.5"
         x="-78"
         y="1010"
         transform="matrix(0,-1,1,0,0,0)"
         id="rect3878"
         style="fill:#000000;fill-opacity:1;stroke:none" />
    </g>
    <g
       transform="matrix(0,1,-1,0,239,-318)"
       id="g3880">
      <rect
         width="10"
         height="90"
         rx="5"
         ry="4.5"
         x="1010"
         y="68"
         id="rect3882"
         style="fill:#000000;fill-opacity:1;stroke:none" />
      <rect
         width="10"
         height="90"
         rx="5"
         ry="4.5"
         x="-78"
         y="1010"
         transform="matrix(0,-1,1,0,0,0)"
         id="rect3884"
         style="fill:#000000;fill-opacity:1;stroke:none" />
    </g>
    <g
       transform="matrix(-1,0,0,1,1252.3128,317.0013)"
       id="g4070">
      <path
         d="M 464.92239,125.15655 A 30,30 0 0 1 405,123"
         transform="matrix(0.94375907,0,0,1,-36.222423,-11.001304)"
         id="path3886"
         style="fill:none;stroke:#000000;stroke-width:10.29365063;stroke-linecap:round;stroke-miterlimit:0;stroke-opacity:1;stroke-dasharray:none;marker-start:none" />
      <rect
         width="10"
         height="60"
         rx="5"
         ry="5"
         x="341"
         y="56"
         id="rect3888"
         style="fill:#000000;fill-opacity:1;stroke:none" />
    </g>
    <g
       transform="matrix(1,0,0,-1,1007.6872,202.9987)"
       id="g4074">
      <path
         d="M 464.92239,125.15655 A 30,30 0 0 1 405,123"
         transform="matrix(0.94375907,0,0,1,-36.222423,-11.001304)"
         id="path4076"
         style="fill:none;stroke:#000000;stroke-width:10.29365063;stroke-linecap:round;stroke-miterlimit:0;stroke-opacity:1;stroke-dasharray:none;marker-start:none" />
      <rect
         width="10"
         height="60"
         rx="5"
         ry="5"
         x="341"
         y="56"
         id="rect4078"
         style="fill:#000000;fill-opacity:1;stroke:none" />
    </g>
    <g
       transform="matrix(-1,0,0,-1,496.31277,518.9987)"
       id="g4086">
      <path
         d="M 464.92239,125.15655 A 30,30 0 0 1 405,123"
         transform="matrix(0.94375907,0,0,1,-36.222423,-11.001304)"
         id="path4088"
         style="fill:none;stroke:#000000;stroke-width:10.29365063;stroke-linecap:round;stroke-miterlimit:0;stroke-opacity:1;stroke-dasharray:none;marker-start:none" />
      <rect
         width="10"
         height="60"
         rx="5"
         ry="5"
         x="341"
         y="56"
         id="rect4090"
         style="fill:#000000;fill-opacity:1;stroke:none" />
    </g>
    <g
       transform="translate(-0.31277245,1.001304)"
       id="g4092">
      <path
         d="M 464.92239,125.15655 A 30,30 0 0 1 405,123"
         transform="matrix(0.94375907,0,0,1,-36.222423,-11.001304)"
         id="path4094"
         style="fill:none;stroke:#000000;stroke-width:10.29365063;stroke-linecap:round;stroke-miterlimit:0;stroke-opacity:1;stroke-dasharray:none;marker-start:none" />
      <rect
         width="10"
         height="60"
         rx="5"
         ry="5"
         x="341"
         y="56"
         id="rect4096"
         style="fill:#000000;fill-opacity:1;stroke:none" />
    </g>
    <path
       d="m 675.90882,142.8724 a 66.657679,40.827829 0 1 1 -10e-6,-81.655657"
       transform="matrix(0.97730779,0,0,0.99374708,-1.4258823,1.0209715)"
       id="path4098"
       style="fill:none;stroke:#000000;stroke-width:10.14720345;stroke-linecap:round;stroke-miterlimit:4;stroke-opacity:1;stroke-dasharray:none" />
    <path
       d="m 675.90882,142.8724 a 66.657679,40.827829 0 1 1 -10e-6,-81.655657"
       transform="matrix(-0.97730779,0,0,0.99374708,1505.571,1.0209715)"
       id="path4100"
       style="fill:none;stroke:#000000;stroke-width:10.14720345;stroke-linecap:round;stroke-miterlimit:4;stroke-opacity:1;stroke-dasharray:none" />
    <path
       d="m 675.90882,142.8724 a 66.657679,40.827829 0 1 1 -10e-6,-81.655657"
       transform="matrix(0,-0.97730779,0.99374708,0,527.59351,1689.4259)"
       id="path4102"
       style="fill:none;stroke:#000000;stroke-width:10.14720345;stroke-linecap:round;stroke-miterlimit:4;stroke-opacity:1;stroke-dasharray:none" />
    <path
       d="m 675.90882,142.8724 a 66.657679,40.827829 0 1 1 -10e-6,-81.655657"
       transform="matrix(0,0.97730779,0.99374708,0,1030.166,433.42905)"
       id="path4104"
       style="fill:none;stroke:#000000;stroke-width:10.14720345;stroke-linecap:round;stroke-miterlimit:4;stroke-opacity:1;stroke-dasharray:none" />
    <rect
       width="10"
       height="90"
       rx="5"
       ry="5"
       x="621"
       y="373"
       id="rect4106"
       style="fill:#000000;fill-opacity:1;stroke:none" />
    <rect
       width="10"
       height="90"
       rx="5"
       ry="5"
       x="1049"
       y="-423"
       transform="matrix(0,1,-1,0,0,0)"
       id="rect4108"
       style="fill:#000000;fill-opacity:1;stroke:none" />
    <rect
       width="10"
       height="125"
       rx="5"
       ry="5"
       x="826.60785"
       y="594.67682"
       transform="matrix(0.70710678,0.70710678,-0.70710678,0.70710678,0,0)"
       id="rect4110"
       style="fill:#000000;fill-opacity:1;stroke:none" />
    <rect
       width="10"
       height="125"
       rx="5"
       ry="5"
       x="-461.74072"
       y="1437.5481"
       transform="matrix(-0.70710678,0.70710678,0.70710678,0.70710678,0,0)"
       id="rect4112"
       style="fill:#000000;fill-opacity:1;stroke:none" />
    <path
       d="m 636.00054,693 a 41.00054,41.00054 0 1 1 -82.00108,0 41.00054,41.00054 0 1 1 82.00108,0 z"
       transform="translate(35,46.000538)"
       id="path4116"
       style="fill:none;stroke:#000000;stroke-width:10;stroke-miterlimit:4;stroke-opacity:1;stroke-dasharray:none" />
    <g
       id="g4184">
      <path
         d="m 380.625,388.25 -23.4375,3.6875 -11.40625,17.15625 1.59375,23.5 16.40625,13.15625 22.25,-0.84375 -2.75,-2.125 c -1.27842,0.30319 -2.61795,0.5 -3.96875,0.5 -11.40254,0 -20.625,-11.32249 -20.625,-25.28125 0,-13.95876 9.22246,-25.28125 20.625,-25.28125 0.59735,0 1.19677,0.0329 1.78125,0.0937 L 380.625,388.25 z"
         id="path4167"
         style="fill:#000000;fill-opacity:1;stroke:none" />
      <path
         d="m 370,418 a 30,30 0 1 1 -60,0 30,30 0 1 1 60,0 z"
         transform="translate(35,0)"
         id="path4118"
         style="fill:none;stroke:#000000;stroke-width:10;stroke-linecap:round;stroke-linejoin:round;stroke-miterlimit:4;stroke-opacity:1;stroke-dasharray:none;stroke-dashoffset:0" />
    </g>
    <g
       id="g4179">
      <rect
         width="69.999992"
         height="10"
         rx="5"
         ry="4.7643294"
         x="850"
         y="772.94324"
         id="rect4173"
         style="fill:#000000;fill-opacity:1;stroke:none" />
      <path
         d="m 785,775.17195 a 12.171954,12.171954 0 0 1 -8.60687,-20.77882"
         transform="matrix(0.81623434,0,0,0.81623434,215.19121,145.2132)"
         id="path4175"
         style="fill:none;stroke:#000000;stroke-width:12.25138378;stroke-linecap:round;stroke-miterlimit:0;stroke-opacity:1;stroke-dasharray:none" />
      <rect
         width="43"
         height="10"
         rx="5"
         ry="4.7643294"
         x="57.27565"
         y="1133.3917"
         transform="matrix(0.70710678,-0.70710678,0.70710678,0.70710678,0,0)"
         id="rect4177"
         style="fill:#000000;fill-opacity:1;stroke:none" />
    </g>
    <g
       transform="matrix(-1,0,0,1,2012.6328,-3.9515478e-5)"
       id="g4188">
      <rect
         width="69.999992"
         height="10"
         rx="5"
         ry="4.7643294"
         x="850"
         y="772.94324"
         id="rect4190"
         style="fill:#000000;fill-opacity:1;stroke:none" />
      <path
         d="m 785,775.17195 a 12.171954,12.171954 0 0 1 -8.60687,-20.77882"
         transform="matrix(0.81623434,0,0,0.81623434,215.19121,145.2132)"
         id="path4192"
         style="fill:none;stroke:#000000;stroke-width:12.25138378;stroke-linecap:round;stroke-miterlimit:0;stroke-opacity:1;stroke-dasharray:none" />
      <rect
         width="43"
         height="10"
         rx="5"
         ry="4.7643294"
         x="57.27565"
         y="1133.3917"
         transform="matrix(0.70710678,-0.70710678,0.70710678,0.70710678,0,0)"
         id="rect4194"
         style="fill:#000000;fill-opacity:1;stroke:none" />
    </g>
    <g
       id="g4218">
      <rect
         width="69.999992"
         height="10"
         rx="5"
         ry="4.7643294"
         x="-760.86591"
         y="416.25699"
         transform="matrix(0,-1,1,0,0,0)"
         id="rect4198"
         style="fill:#000000;fill-opacity:1;stroke:none" />
      <path
         d="m 785,775.17195 a 12.171954,12.171954 0 0 1 -8.60687,-20.77882"
         transform="matrix(0,-0.81623434,0.81623434,0,-211.47303,1395.6747)"
         id="path4200"
         style="fill:none;stroke:#000000;stroke-width:12.25138378;stroke-linecap:round;stroke-miterlimit:0;stroke-opacity:1;stroke-dasharray:none" />
      <rect
         width="69.999992"
         height="10"
         rx="5"
         ry="4.7643294"
         x="712.98053"
         y="-342.32742"
         transform="matrix(0,1,-1,0,0,0)"
         id="rect4206"
         style="fill:#000000;fill-opacity:1;stroke:none" />
      <path
         d="m 785,775.17195 a 12.171954,12.171954 0 0 1 -8.60687,-20.77882"
         transform="matrix(0,0.81623434,-0.81623434,0,970.05745,78.171752)"
         id="path4208"
         style="fill:none;stroke:#000000;stroke-width:12.25138378;stroke-linecap:round;stroke-miterlimit:0;stroke-opacity:1;stroke-dasharray:none" />
      <rect
         width="80"
         height="10"
         rx="5"
         ry="4.7643294"
         x="-829.56323"
         y="-257.87775"
         transform="matrix(-0.70710678,-0.70710678,0.70710678,-0.70710678,0,0)"
         id="rect4202"
         style="fill:#000000;fill-opacity:1;stroke:none" />
    </g>
    <g
       transform="matrix(0,-1,1,0,-361.94701,1753.5436)"
       id="g4225">
      <rect
         width="69.999992"
         height="10"
         rx="5"
         ry="4.7643294"
         x="-760.86591"
         y="416.25699"
         transform="matrix(0,-1,1,0,0,0)"
         id="rect4227"
         style="fill:#000000;fill-opacity:1;stroke:none" />
      <path
         d="m 785,775.17195 a 12.171954,12.171954 0 0 1 -8.60687,-20.77882"
         transform="matrix(0,-0.81623434,0.81623434,0,-211.47303,1395.6747)"
         id="path4229"
         style="fill:none;stroke:#000000;stroke-width:12.25138378;stroke-linecap:round;stroke-miterlimit:0;stroke-opacity:1;stroke-dasharray:none" />
      <rect
         width="69.999992"
         height="10"
         rx="5"
         ry="4.7643294"
         x="712.98053"
         y="-342.32742"
         transform="matrix(0,1,-1,0,0,0)"
         id="rect4231"
         style="fill:#000000;fill-opacity:1;stroke:none" />
      <path
         d="m 785,775.17195 a 12.171954,12.171954 0 0 1 -8.60687,-20.77882"
         transform="matrix(0,0.81623434,-0.81623434,0,970.05745,78.171752)"
         id="path4233"
         style="fill:none;stroke:#000000;stroke-width:12.25138378;stroke-linecap:round;stroke-miterlimit:0;stroke-opacity:1;stroke-dasharray:none" />
      <rect
         width="80"
         height="10"
         rx="5"
         ry="4.7643294"
         x="-829.56323"
         y="-257.87775"
         transform="matrix(-0.70710678,-0.70710678,0.70710678,-0.70710678,0,0)"
         id="rect4235"
         style="fill:#000000;fill-opacity:1;stroke:none" />
    </g>
    <text
       x="141.31424"
       y="267.5"
       id="text4237"
       xml:space="preserve"
       style="font-size:72px;font-style:normal;font-variant:normal;font-weight:normal;font-stretch:normal;text-align:center;line-height:125%;letter-spacing:0px;word-spacing:0px;text-anchor:middle;fill:#000000;fill-opacity:1;stroke:none;font-family:DejaVu Sans;-inkscape-font-specification:Sans"><tspan
         x="141.31424"
         y="267.5"
         id="tspan4239">A</tspan></text>
    <text
       x="395.55612"
       y="267.5"
       id="text4241"
       xml:space="preserve"
       style="font-size:72px;font-style:normal;font-variant:normal;font-weight:normal;font-stretch:normal;text-align:center;line-height:125%;letter-spacing:0px;word-spacing:0px;text-anchor:middle;fill:#000000;fill-opacity:1;stroke:none;font-family:DejaVu Sans;-inkscape-font-specification:Sans"><tspan
         x="395.55612"
         y="267.5"
         id="tspan4243">B</tspan></text>
    <text
       x="644.46539"
       y="267.5"
       id="text4245"
       xml:space="preserve"
       style="font-size:72px;font-style:normal;font-variant:normal;font-weight:normal;font-stretch:normal;text-align:center;line-height:125%;letter-spacing:0px;word-spacing:0px;text-anchor:middle;fill:#000000;fill-opacity:1;stroke:none;font-family:DejaVu Sans;-inkscape-font-specification:Sans"><tspan
         x="644.46539"
         y="267.5"
         id="tspan4247">C</tspan></text>
    <text
       x="895.87915"
       y="267.5"
       id="text4249"
       xml:space="preserve"
       style="font-size:72px;font-style:normal;font-variant:normal;font-weight:normal;font-stretch:normal;text-align:center;line-height:125%;letter-spacing:0px;word-spacing:0px;text-anchor:middle;fill:#000000;fill-opacity:1;stroke:none;font-family:DejaVu Sans;-inkscape-font-specification:Sans"><tspan
         x="895.87915"
         y="267.5"
         id="tspan4251">D</tspan></text>
    <text
       x="1149.1783"
       y="267.5"
       id="text4253"
       xml:space="preserve"
       style="font-size:72px;font-style:normal;font-variant:normal;font-weight:normal;font-stretch:normal;text-align:center;line-height:125%;letter-spacing:0px;word-spacing:0px;text-anchor:middle;fill:#000000;fill-opacity:1;stroke:none;font-family:DejaVu Sans;-inkscape-font-specification:Sans"><tspan
         x="1149.1783"
         y="267.5"
         id="tspan4255">E</tspan></text>
    <text
       x="1402.4775"
       y="267.5"
       id="text4257"
       xml:space="preserve"
       style="font-size:72px;font-style:normal;font-variant:normal;font-weight:normal;font-stretch:normal;text-align:center;line-height:125%;letter-spacing:0px;word-spacing:0px;text-anchor:middle;fill:#000000;fill-opacity:1;stroke:none;font-family:DejaVu Sans;-inkscape-font-specification:Sans"><tspan
         x="1402.4775"
         y="267.5"
         id="tspan4259">F</tspan></text>
    <text
       x="141.3147"
       y="588"
       id="text4261"
       xml:space="preserve"
       style="font-size:72px;font-style:normal;font-variant:normal;font-weight:normal;font-stretch:normal;text-align:center;line-height:125%;letter-spacing:0px;word-spacing:0px;text-anchor:middle;fill:#000000;fill-opacity:1;stroke:none;font-family:DejaVu Sans;-inkscape-font-specification:Sans"><tspan
         x="141.3147"
         y="588"
         id="tspan4263">G</tspan></text>
    <text
       x="397.28018"
       y="588"
       id="text4265"
       xml:space="preserve"
       style="font-size:72px;font-style:normal;font-variant:normal;font-weight:normal;font-stretch:normal;text-align:center;line-height:125%;letter-spacing:0px;word-spacing:0px;text-anchor:middle;fill:#000000;fill-opacity:1;stroke:none;font-family:DejaVu Sans;-inkscape-font-specification:Sans"><tspan
         x="397.28018"
         y="588"
         id="tspan4267">H</tspan></text>
    <text
       x="649.24615"
       y="588"
       id="text4269"
       xml:space="preserve"
       style="font-size:72px;font-style:normal;font-variant:normal;font-weight:normal;font-stretch:normal;text-align:center;line-height:125%;letter-spacing:0px;word-spacing:0px;text-anchor:middle;fill:#000000;fill-opacity:1;stroke:none;font-family:DejaVu Sans;-inkscape-font-specification:Sans"><tspan
         x="649.24615"
         y="588"
         id="tspan4271">I</tspan></text>
    <text
       x="903.87848"
       y="588"
       id="text4273"
       xml:space="preserve"
       style="font-size:72px;font-style:normal;font-variant:normal;font-weight:normal;font-stretch:normal;text-align:center;line-height:125%;letter-spacing:0px;word-spacing:0px;text-anchor:middle;fill:#000000;fill-opacity:1;stroke:none;font-family:DejaVu Sans;-inkscape-font-specification:Sans"><tspan
         x="903.87848"
         y="588"
         id="tspan4275">J</tspan></text>
    <text
       x="1149.1787"
       y="588"
       id="text4277"
       xml:space="preserve"
       style="font-size:72px;font-style:normal;font-variant:normal;font-weight:normal;font-stretch:normal;text-align:center;line-height:125%;letter-spacing:0px;word-spacing:0px;text-anchor:middle;fill:#000000;fill-opacity:1;stroke:none;font-family:DejaVu Sans;-inkscape-font-specification:Sans"><tspan
         x="1149.1787"
         y="588"
         id="tspan4279">K</tspan></text>
    <text
       x="1401.1448"
       y="588"
       id="text4281"
       xml:space="preserve"
       style="font-size:72px;font-style:normal;font-variant:normal;font-weight:normal;font-stretch:normal;text-align:center;line-height:125%;letter-spacing:0px;word-spacing:0px;text-anchor:middle;fill:#000000;fill-opacity:1;stroke:none;font-family:DejaVu Sans;-inkscape-font-specification:Sans"><tspan
         x="1401.1448"
         y="588"
         id="tspan4283">L</tspan></text>
    <text
       x="145.31374"
       y="908"
       id="text4285"
       xml:space="preserve"
       style="font-size:72px;font-style:normal;font-variant:normal;font-weight:normal;font-stretch:normal;text-align:center;line-height:125%;letter-spacing:0px;word-spacing:0px;text-anchor:middle;fill:#000000;fill-opacity:1;stroke:none;font-family:DejaVu Sans;-inkscape-font-specification:Sans"><tspan
         x="145.31374"
         y="908"
         id="tspan4287">M</tspan></text>
    <text
       x="397.27975"
       y="908"
       id="text4289"
       xml:space="preserve"
       style="font-size:72px;font-style:normal;font-variant:normal;font-weight:normal;font-stretch:normal;text-align:center;line-height:125%;letter-spacing:0px;word-spacing:0px;text-anchor:middle;fill:#000000;fill-opacity:1;stroke:none;font-family:DejaVu Sans;-inkscape-font-specification:Sans"><tspan
         x="397.27975"
         y="908"
         id="tspan4291">N</tspan></text>
    <text
       x="646.57947"
       y="908"
       id="text4293"
       xml:space="preserve"
       style="font-size:72px;font-style:normal;font-variant:normal;font-weight:normal;font-stretch:normal;text-align:center;line-height:125%;letter-spacing:0px;word-spacing:0px;text-anchor:middle;fill:#000000;fill-opacity:1;stroke:none;font-family:DejaVu Sans;-inkscape-font-specification:Sans"><tspan
         x="646.57947"
         y="908"
         id="tspan4295">O</tspan></text>
    <text
       x="898.54547"
       y="908"
       id="text4297"
       xml:space="preserve"
       style="font-size:72px;font-style:normal;font-variant:normal;font-weight:normal;font-stretch:normal;text-align:center;line-height:125%;letter-spacing:0px;word-spacing:0px;text-anchor:middle;fill:#000000;fill-opacity:1;stroke:none;font-family:DejaVu Sans;-inkscape-font-specification:Sans"><tspan
         x="898.54547"
         y="908"
         id="tspan4299">P</tspan></text>
    <text
       x="1151.8445"
       y="908"
       id="text4301"
       xml:space="preserve"
       style="font-size:72px;font-style:normal;font-variant:normal;font-weight:normal;font-stretch:normal;text-align:center;line-height:125%;letter-spacing:0px;word-spacing:0px;text-anchor:middle;fill:#000000;fill-opacity:1;stroke:none;font-family:DejaVu Sans;-inkscape-font-specification:Sans"><tspan
         x="1151.8445"
         y="908"
         id="tspan4303">Q</tspan></text>
    <text
       x="1401.1443"
       y="908"
       id="text4305"
       xml:space="preserve"
       style="font-size:72px;font-style:normal;font-variant:normal;font-weight:normal;font-stretch:normal;text-align:center;line-height:125%;letter-spacing:0px;word-spacing:0px;text-anchor:middle;fill:#000000;fill-opacity:1;stroke:none;font-family:DejaVu Sans;-inkscape-font-specification:Sans"><tspan
         x="1401.1443"
         y="908"
         id="tspan4307">R</tspan></text>
    <text
       x="140"
       y="1228"
       id="text4309"
       xml:space="preserve"
       style="font-size:72px;font-style:normal;font-variant:normal;font-weight:normal;font-stretch:normal;text-align:center;line-height:125%;letter-spacing:0px;word-spacing:0px;text-anchor:middle;fill:#000000;fill-opacity:1;stroke:none;font-family:DejaVu Sans;-inkscape-font-specification:Sans"><tspan
         x="140"
         y="1228"
         id="tspan4311">S</tspan></text>
    <text
       x="397.33368"
       y="1228"
       id="text4313"
       xml:space="preserve"
       style="font-size:72px;font-style:normal;font-variant:normal;font-weight:normal;font-stretch:normal;text-align:center;line-height:125%;letter-spacing:0px;word-spacing:0px;text-anchor:middle;fill:#000000;fill-opacity:1;stroke:none;font-family:DejaVu Sans;-inkscape-font-specification:Sans"><tspan
         x="397.33368"
         y="1228"
         id="tspan4315">T</tspan></text>
    <text
       x="647.9989"
       y="1228"
       id="text4317"
       xml:space="preserve"
       style="font-size:72px;font-style:normal;font-variant:normal;font-weight:normal;font-stretch:normal;text-align:center;line-height:125%;letter-spacing:0px;word-spacing:0px;text-anchor:middle;fill:#000000;fill-opacity:1;stroke:none;font-family:DejaVu Sans;-inkscape-font-specification:Sans"><tspan
         x="647.9989"
         y="1228"
         id="tspan4319">U</tspan></text>
    <text
       x="897.21228"
       y="1228"
       id="text4321"
       xml:space="preserve"
       style="font-size:72px;font-style:normal;font-variant:normal;font-weight:normal;font-stretch:normal;text-align:center;line-height:125%;letter-spacing:0px;word-spacing:0px;text-anchor:middle;fill:#000000;fill-opacity:1;stroke:none;font-family:DejaVu Sans;-inkscape-font-specification:Sans"><tspan
         x="897.21228"
         y="1228"
         id="tspan4323">V</tspan></text>
    <text
       x="1146.512"
       y="1228"
       id="text4325"
       xml:space="preserve"
       style="font-size:72px;font-style:normal;font-variant:normal;font-weight:normal;font-stretch:normal;text-align:center;line-height:125%;letter-spacing:0px;word-spacing:0px;text-anchor:middle;fill:#000000;fill-opacity:1;stroke:none;font-family:DejaVu Sans;-inkscape-font-specification:Sans"><tspan
         x="1146.512"
         y="1228"
         id="tspan4327">W</tspan></text>
    <text
       x="1405.1438"
       y="1228"
       id="text4329"
       xml:space="preserve"
       style="font-size:72px;font-style:normal;font-variant:normal;font-weight:normal;font-stretch:normal;text-align:center;line-height:125%;letter-spacing:0px;word-spacing:0px;text-anchor:middle;fill:#000000;fill-opacity:1;stroke:none;font-family:DejaVu Sans;-inkscape-font-specification:Sans"><tspan
         x="1405.1438"
         y="1228"
         id="tspan4331">X</tspan></text>
    <text
       x="142.67439"
       y="1583"
       id="text4333"
       xml:space="preserve"
       style="font-size:72px;font-style:normal;font-variant:normal;font-weight:normal;font-stretch:normal;text-align:center;line-height:125%;letter-spacing:0px;word-spacing:0px;text-anchor:middle;fill:#000000;fill-opacity:1;stroke:none;font-family:DejaVu Sans;-inkscape-font-specification:Sans"><tspan
         x="142.67439"
         y="1583"
         id="tspan4335">Y</tspan></text>
    <text
       x="395.94659"
       y="1583"
       id="text4337"
       xml:space="preserve"
       style="font-size:72px;font-style:normal;font-variant:normal;font-weight:normal;font-stretch:normal;text-align:center;line-height:125%;letter-spacing:0px;word-spacing:0px;text-anchor:middle;fill:#000000;fill-opacity:1;stroke:none;font-family:DejaVu Sans;-inkscape-font-specification:Sans"><tspan
         x="395.94659"
         y="1583"
         id="tspan4339">Z</tspan></text>
  </g>
</svg>
